<svg width="22" height="22" viewBox="0 0 22 22" fill="none" xmlns="http://www.w3.org/2000/svg">
<g clip-path="url(#clip0_125_1661)">
<path d="M17.4167 6.70179V5.79167H16.5V4.88155H15.5833V3.97144H2.75V4.88155H1.83333V5.79167H0.916667V6.70179H0V15.803H0.916667V16.7131H1.83333V17.6232H2.75V18.5333H3.66667V22.1738H7.33333V21.2637H8.25V20.3536H9.16667V19.4435H10.0833V18.5333H15.5833V17.6232H16.5V16.7131H17.4167V15.803H18.3333V6.70179H17.4167ZM16.5 13.9827H15.5833V14.8929H14.6667V15.803H13.75V16.7131H9.16667V17.6232H8.25V18.5333H7.33333V19.4435H6.41667V20.3536H5.5V16.7131H4.58333V15.803H3.66667V14.8929H2.75V13.9827H1.83333V8.52203H2.75V7.61191H3.66667V6.70179H4.58333V5.79167H13.75V6.70179H14.6667V7.61191H15.5833V8.52203H16.5V13.9827Z" fill="#952D7D"/>
</g>
<defs>
<clipPath id="clip0_125_1661">
<rect width="22" height="21.8429" fill="white"/>
</clipPath>
</defs>
</svg>
